<?xml version="1.0" encoding="UTF-8"?>
<svg width="13px" height="8px" viewBox="0 0 13 8" version="1.1" xmlns="http://www.w3.org/2000/svg" xmlns:xlink="http://www.w3.org/1999/xlink">
    <!-- Generator: Sketch 50.2 (55047) - http://www.bohemiancoding.com/sketch -->
    <title>Chev</title>
    <desc>Created with Sketch.</desc>
    <defs></defs>
    <g id="Page-1" stroke="none" stroke-width="1" fill="none" fill-rule="evenodd">
        <g id="1-2-Profile" transform="translate(-807.000000, -379.000000)" fill="#000000">
            <g id="Group-2" transform="translate(760.000000, 250.000000)">
                <g id="Group-6" transform="translate(0.000000, 83.000000)">
                    <g id="Dropdown-1">
                        <path d="M59.1787445,46.2764777 L59.764511,46.8944292 C59.8965554,47.0337288 59.8965554,47.2519855 59.764511,47.3912851 L53.7620778,53.7235223 C53.6248749,53.8682639 53.3963136,53.8743751 53.2515721,53.7371722 C53.2469013,53.7327447 53.2423497,53.7281931 53.2379222,53.7235223 L47.235489,47.3912851 C47.1034446,47.2519855 47.1034446,47.0337288 47.235489,46.8944292 L47.8212555,46.2764777 C47.9584585,46.1317361 48.1870197,46.1256249 48.3317613,46.2628278 C48.3364321,46.2672553 48.3409837,46.2718069 48.3454112,46.2764777 L53.5,51.7142857 L58.6545888,46.2764777 C58.7917918,46.1317361 59.020353,46.1256249 59.1650946,46.2628278 C59.1697654,46.2672553 59.174317,46.2718069 59.1787445,46.2764777 Z" id="Chev" transform="translate(53.500000, 50.000000) scale(-1, 1) translate(-53.500000, -50.000000) "></path>
                    </g>
                </g>
            </g>
        </g>
    </g>
</svg>