<?xml version="1.0"?>
<svg xmlns="http://www.w3.org/2000/svg" xmlns:xlink="http://www.w3.org/1999/xlink" version="1.1" id="Capa_1" x="0px" y="0px" viewBox="0 0 248.541 248.541" style="enable-background:new 0 0 248.541 248.541;" xml:space="preserve" width="512px" height="512px"><g><g>
	<path d="M63.618,108.541h121.305c5.24,0,10.042-2.926,12.443-7.584c2.402-4.656,2.002-10.266-1.036-14.535L140.946,8.6   c-3.84-5.394-10.054-8.6-16.676-8.6s-12.836,3.205-16.676,8.6L52.211,86.422c-3.038,4.27-3.438,9.879-1.036,14.535   C53.576,105.615,58.378,108.541,63.618,108.541z" data-original="#000000" class="active-path" data-old_color="#000000" fill="#A4A5AB"/>
	<path d="M184.923,140H63.618c-5.24,0-10.042,2.926-12.443,7.584c-2.402,4.656-2.002,10.266,1.036,14.535l55.384,77.822   c3.84,5.395,10.054,8.6,16.676,8.6s12.836-3.205,16.676-8.6l55.384-77.822c3.038-4.27,3.438-9.879,1.036-14.535   C194.965,142.926,190.163,140,184.923,140z" data-original="#000000" class="active-path" data-old_color="#000000" fill="#A4A5AB"/>
</g></g> </svg>
